<mxfile host="Electron" agent="Mozilla/5.0 (Macintosh; Intel Mac OS X 10_15_7) AppleWebKit/537.36 (KHTML, like Gecko) draw.io/27.0.9 Chrome/134.0.6998.205 Electron/35.4.0 Safari/537.36" version="27.0.9">
  <diagram name="Page-1" id="GhYLedryhdAseqrR5MEL">
    <mxGraphModel dx="1261" dy="976" grid="1" gridSize="10" guides="1" tooltips="1" connect="1" arrows="1" fold="1" page="1" pageScale="1" pageWidth="827" pageHeight="1169" math="0" shadow="0">
      <root>
        <mxCell id="0" />
        <mxCell id="1" parent="0" />
        <mxCell id="UeIk6slFyx1l8UJ_SRnx-1" value="" style="rounded=0;whiteSpace=wrap;html=1;fillColor=none;dashed=1;strokeColor=#616161;" vertex="1" parent="1">
          <mxGeometry x="20" y="132" width="180" height="710" as="geometry" />
        </mxCell>
        <mxCell id="UeIk6slFyx1l8UJ_SRnx-2" value="&lt;b&gt;Sources&lt;/b&gt;" style="rounded=0;whiteSpace=wrap;html=1;fontSize=24;strokeColor=none;" vertex="1" parent="1">
          <mxGeometry x="50" y="80" width="120" height="30" as="geometry" />
        </mxCell>
        <mxCell id="UeIk6slFyx1l8UJ_SRnx-3" value="&lt;span style=&quot;color: rgba(0, 0, 0, 0); font-family: monospace; font-size: 0px; text-align: start; text-wrap-mode: nowrap;&quot;&gt;%3CmxGraphModel%3E%3Croot%3E%3CmxCell%20id%3D%220%22%2F%3E%3CmxCell%20id%3D%221%22%20parent%3D%220%22%2F%3E%3CmxCell%20id%3D%222%22%20value%3D%22%22%20style%3D%22shape%3Dmxgraph.arrows.arrow_right%3Bhtml%3D1%3BverticalLabelPosition%3Dbottom%3BverticalAlign%3Dtop%3BstrokeWidth%3D2%3BstrokeColor%3D%236c8ebf%3BfillColor%3D%23dae8fc%3BgradientColor%3D%237ea6e0%3B%22%20vertex%3D%221%22%20parent%3D%221%22%3E%3CmxGeometry%20x%3D%22210%22%20y%3D%22300%22%20width%3D%2265.65%22%20height%3D%2250%22%20as%3D%22geometry%22%2F%3E%3C%2FmxCell%3E%3C%2Froot%3E%3C%2FmxGraphModel%3E&lt;/span&gt;" style="rounded=0;whiteSpace=wrap;html=1;fillColor=none;dashed=1;strokeColor=#616161;" vertex="1" parent="1">
          <mxGeometry x="260" y="120" width="1000" height="710" as="geometry" />
        </mxCell>
        <mxCell id="UeIk6slFyx1l8UJ_SRnx-4" value="&lt;b&gt;Data Warehouse&lt;/b&gt;" style="rounded=0;whiteSpace=wrap;html=1;fontSize=24;strokeColor=none;" vertex="1" parent="1">
          <mxGeometry x="695" y="50" width="120" height="30" as="geometry" />
        </mxCell>
        <mxCell id="UeIk6slFyx1l8UJ_SRnx-5" value="" style="rounded=0;whiteSpace=wrap;html=1;fillColor=none;dashed=1;strokeColor=#616161;" vertex="1" parent="1">
          <mxGeometry x="1310" y="120" width="300" height="710" as="geometry" />
        </mxCell>
        <mxCell id="UeIk6slFyx1l8UJ_SRnx-6" value="&lt;b&gt;Consume&lt;/b&gt;" style="rounded=0;whiteSpace=wrap;html=1;fontSize=24;strokeColor=none;" vertex="1" parent="1">
          <mxGeometry x="1410" y="70" width="120" height="30" as="geometry" />
        </mxCell>
        <mxCell id="UeIk6slFyx1l8UJ_SRnx-7" value="&lt;font style=&quot;font-size: 18px;&quot;&gt;Bonze Layer&lt;/font&gt;" style="rounded=0;whiteSpace=wrap;html=1;fillColor=#fff2cc;strokeColor=#d6b656;" vertex="1" parent="1">
          <mxGeometry x="300" y="170" width="231.7" height="30" as="geometry" />
        </mxCell>
        <mxCell id="UeIk6slFyx1l8UJ_SRnx-8" value="" style="rounded=0;whiteSpace=wrap;html=1;strokeColor=#FFD966;" vertex="1" parent="1">
          <mxGeometry x="300" y="200" width="229.7" height="610" as="geometry" />
        </mxCell>
        <mxCell id="UeIk6slFyx1l8UJ_SRnx-9" value="&lt;font style=&quot;font-size: 18px;&quot;&gt;Silver Layer&lt;/font&gt;" style="rounded=0;whiteSpace=wrap;html=1;fillColor=#f5f5f5;strokeColor=#666666;fontColor=#333333;" vertex="1" parent="1">
          <mxGeometry x="590" y="170" width="260" height="30" as="geometry" />
        </mxCell>
        <mxCell id="UeIk6slFyx1l8UJ_SRnx-10" value="" style="rounded=0;whiteSpace=wrap;html=1;strokeColor=#616161;" vertex="1" parent="1">
          <mxGeometry x="590" y="200" width="260" height="605" as="geometry" />
        </mxCell>
        <mxCell id="UeIk6slFyx1l8UJ_SRnx-11" value="" style="rounded=0;whiteSpace=wrap;html=1;strokeColor=#FFE599;" vertex="1" parent="1">
          <mxGeometry x="910" y="200" width="270" height="610" as="geometry" />
        </mxCell>
        <mxCell id="UeIk6slFyx1l8UJ_SRnx-12" value="&lt;font style=&quot;font-size: 18px;&quot;&gt;Gold Layer&lt;/font&gt;" style="rounded=0;whiteSpace=wrap;html=1;fillColor=#e3c800;strokeColor=#B09500;fontColor=#000000;" vertex="1" parent="1">
          <mxGeometry x="910" y="170" width="270" height="30" as="geometry" />
        </mxCell>
        <mxCell id="UeIk6slFyx1l8UJ_SRnx-13" value="CRM&amp;nbsp;" style="image;aspect=fixed;html=1;points=[];align=center;fontSize=12;image=img/lib/azure2/general/Folder_Blank.svg;" vertex="1" parent="1">
          <mxGeometry x="70" y="184.1" width="69" height="56.00000000000001" as="geometry" />
        </mxCell>
        <mxCell id="UeIk6slFyx1l8UJ_SRnx-14" value="" style="image;aspect=fixed;html=1;points=[];align=center;fontSize=12;image=img/lib/azure2/general/File.svg;" vertex="1" parent="1">
          <mxGeometry x="127.83" y="220" width="24.35" height="30" as="geometry" />
        </mxCell>
        <mxCell id="UeIk6slFyx1l8UJ_SRnx-15" value="ERP" style="image;aspect=fixed;html=1;points=[];align=center;fontSize=12;image=img/lib/azure2/general/Folder_Blank.svg;" vertex="1" parent="1">
          <mxGeometry x="70" y="344.5" width="69" height="56.00000000000001" as="geometry" />
        </mxCell>
        <mxCell id="UeIk6slFyx1l8UJ_SRnx-17" value="" style="image;aspect=fixed;html=1;points=[];align=center;fontSize=12;image=img/lib/azure2/general/File.svg;" vertex="1" parent="1">
          <mxGeometry x="127.83" y="390" width="24.35" height="30" as="geometry" />
        </mxCell>
        <mxCell id="UeIk6slFyx1l8UJ_SRnx-18" value="" style="line;strokeWidth=2;html=1;" vertex="1" parent="1">
          <mxGeometry x="30" y="270" width="152.5" height="10" as="geometry" />
        </mxCell>
        <mxCell id="UeIk6slFyx1l8UJ_SRnx-19" value="" style="line;strokeWidth=2;html=1;" vertex="1" parent="1">
          <mxGeometry x="40" y="440" width="150" height="10" as="geometry" />
        </mxCell>
        <mxCell id="UeIk6slFyx1l8UJ_SRnx-20" value="&lt;font style=&quot;font-size: 15px;&quot;&gt;&lt;b&gt;Object Type:&lt;/b&gt; CSV Files&lt;/font&gt;&lt;div&gt;&lt;font style=&quot;font-size: 15px;&quot;&gt;&lt;b&gt;Interface&lt;/b&gt;: Files in Folder&lt;/font&gt;&lt;/div&gt;" style="text;html=1;align=center;verticalAlign=middle;whiteSpace=wrap;rounded=0;" vertex="1" parent="1">
          <mxGeometry x="40" y="540" width="130" height="30" as="geometry" />
        </mxCell>
        <mxCell id="UeIk6slFyx1l8UJ_SRnx-22" value="" style="html=1;verticalLabelPosition=bottom;align=center;labelBackgroundColor=#ffffff;verticalAlign=top;strokeWidth=2;strokeColor=#d6b656;shadow=0;dashed=0;shape=mxgraph.ios7.icons.data;fillColor=#fff2cc;" vertex="1" parent="1">
          <mxGeometry x="379" y="240.1" width="70" height="94" as="geometry" />
        </mxCell>
        <mxCell id="UeIk6slFyx1l8UJ_SRnx-23" value="" style="html=1;verticalLabelPosition=bottom;align=center;labelBackgroundColor=#ffffff;verticalAlign=top;strokeWidth=2;strokeColor=#666666;shadow=0;dashed=0;shape=mxgraph.ios7.icons.data;fillColor=#f5f5f5;fontColor=#333333;" vertex="1" parent="1">
          <mxGeometry x="684.5" y="245.1" width="71" height="84" as="geometry" />
        </mxCell>
        <mxCell id="UeIk6slFyx1l8UJ_SRnx-24" value="" style="html=1;verticalLabelPosition=bottom;align=center;labelBackgroundColor=#ffffff;verticalAlign=top;strokeWidth=2;strokeColor=#B09500;shadow=0;dashed=0;shape=mxgraph.ios7.icons.data;fillColor=#e3c800;fontColor=#000000;" vertex="1" parent="1">
          <mxGeometry x="1004.99" y="230" width="80" height="90" as="geometry" />
        </mxCell>
        <mxCell id="UeIk6slFyx1l8UJ_SRnx-26" value="" style="shape=mxgraph.arrows.arrow_right;html=1;verticalLabelPosition=bottom;verticalAlign=top;strokeWidth=2;strokeColor=#6c8ebf;fillColor=#dae8fc;gradientColor=#7ea6e0;" vertex="1" parent="1">
          <mxGeometry x="200" y="245.1" width="65.65" height="50" as="geometry" />
        </mxCell>
        <mxCell id="UeIk6slFyx1l8UJ_SRnx-27" value="" style="shape=mxgraph.arrows.arrow_right;html=1;verticalLabelPosition=bottom;verticalAlign=top;strokeWidth=2;strokeColor=#6c8ebf;fillColor=#dae8fc;gradientColor=#7ea6e0;" vertex="1" parent="1">
          <mxGeometry x="529.7" y="262.1" width="65.65" height="50" as="geometry" />
        </mxCell>
        <mxCell id="UeIk6slFyx1l8UJ_SRnx-28" value="" style="shape=mxgraph.arrows.arrow_right;html=1;verticalLabelPosition=bottom;verticalAlign=top;strokeWidth=2;strokeColor=#6c8ebf;fillColor=#dae8fc;gradientColor=#7ea6e0;" vertex="1" parent="1">
          <mxGeometry x="850" y="270" width="65.65" height="50" as="geometry" />
        </mxCell>
        <mxCell id="UeIk6slFyx1l8UJ_SRnx-29" value="&lt;font style=&quot;font-size: 18px;&quot;&gt;Raw Data&lt;/font&gt;" style="text;html=1;align=center;verticalAlign=middle;whiteSpace=wrap;rounded=0;" vertex="1" parent="1">
          <mxGeometry x="369" y="344.5" width="90" height="35.5" as="geometry" />
        </mxCell>
        <mxCell id="UeIk6slFyx1l8UJ_SRnx-30" value="&lt;font style=&quot;font-size: 18px;&quot;&gt;Cleaned, Standardized Data&amp;nbsp;&lt;/font&gt;" style="text;html=1;align=center;verticalAlign=middle;whiteSpace=wrap;rounded=0;" vertex="1" parent="1">
          <mxGeometry x="655" y="339.1" width="130" height="40" as="geometry" />
        </mxCell>
        <mxCell id="UeIk6slFyx1l8UJ_SRnx-31" value="&lt;font style=&quot;font-size: 18px;&quot;&gt;Business-Ready Data&lt;/font&gt;" style="text;html=1;align=center;verticalAlign=middle;whiteSpace=wrap;rounded=0;" vertex="1" parent="1">
          <mxGeometry x="990" y="329.1" width="110" height="44.12" as="geometry" />
        </mxCell>
        <mxCell id="UeIk6slFyx1l8UJ_SRnx-32" value="" style="line;strokeWidth=2;html=1;" vertex="1" parent="1">
          <mxGeometry x="310" y="390" width="210" height="10" as="geometry" />
        </mxCell>
        <mxCell id="UeIk6slFyx1l8UJ_SRnx-33" value="" style="line;strokeWidth=2;html=1;" vertex="1" parent="1">
          <mxGeometry x="600" y="390" width="240" height="10" as="geometry" />
        </mxCell>
        <mxCell id="UeIk6slFyx1l8UJ_SRnx-34" value="" style="line;strokeWidth=2;html=1;" vertex="1" parent="1">
          <mxGeometry x="920" y="390" width="250" height="10" as="geometry" />
        </mxCell>
        <mxCell id="UeIk6slFyx1l8UJ_SRnx-36" value="&lt;span style=&quot;font-size: 15px;&quot;&gt;&lt;b&gt;Object Type: &lt;/b&gt;Tables&lt;/span&gt;" style="text;html=1;align=center;verticalAlign=middle;whiteSpace=wrap;rounded=0;" vertex="1" parent="1">
          <mxGeometry x="291" y="420" width="196" height="20" as="geometry" />
        </mxCell>
        <mxCell id="UeIk6slFyx1l8UJ_SRnx-40" value="&lt;font style=&quot;font-size: 15px;&quot;&gt;&lt;b&gt;Load:&lt;span style=&quot;white-space: pre;&quot;&gt;&#x9;&lt;/span&gt;&lt;span style=&quot;white-space: pre;&quot;&gt;&#x9;&lt;/span&gt;&lt;span style=&quot;white-space: pre;&quot;&gt;&#x9;&lt;/span&gt;&lt;span style=&quot;white-space: pre;&quot;&gt;&#x9;&lt;/span&gt;&lt;/b&gt;&lt;/font&gt;&lt;div&gt;&lt;span style=&quot;font-size: 15px; background-color: transparent; color: light-dark(rgb(0, 0, 0), rgb(255, 255, 255));&quot;&gt;&lt;br&gt;&lt;/span&gt;&lt;/div&gt;&lt;div&gt;&lt;div&gt;&lt;ul&gt;&lt;li&gt;&lt;span style=&quot;font-size: 15px; background-color: transparent; color: light-dark(rgb(0, 0, 0), rgb(255, 255, 255));&quot;&gt;Batch processing&lt;/span&gt;&lt;/li&gt;&lt;li&gt;&lt;font style=&quot;font-size: 15px;&quot;&gt;Full Load (Trunc &amp;amp; Insert)&lt;/font&gt;&lt;/li&gt;&lt;/ul&gt;&lt;div&gt;&lt;span style=&quot;font-size: 15px;&quot;&gt;&lt;br&gt;&lt;/span&gt;&lt;/div&gt;&lt;/div&gt;&lt;div&gt;&lt;span style=&quot;font-size: 15px;&quot;&gt;&lt;br&gt;&lt;/span&gt;&lt;/div&gt;&lt;/div&gt;" style="text;html=1;align=center;verticalAlign=middle;whiteSpace=wrap;rounded=0;" vertex="1" parent="1">
          <mxGeometry x="304" y="510" width="206" height="30" as="geometry" />
        </mxCell>
        <mxCell id="UeIk6slFyx1l8UJ_SRnx-44" value="&lt;font style=&quot;font-size: 15px;&quot;&gt;No &lt;b&gt;Transformation&lt;/b&gt;&lt;/font&gt;" style="text;html=1;align=center;verticalAlign=middle;whiteSpace=wrap;rounded=0;" vertex="1" parent="1">
          <mxGeometry x="304" y="580" width="226" height="30" as="geometry" />
        </mxCell>
        <mxCell id="UeIk6slFyx1l8UJ_SRnx-45" value="&lt;font style=&quot;font-size: 15px;&quot;&gt;&lt;b&gt;Data Model: &lt;/b&gt;None (as-is)&lt;/font&gt;" style="text;html=1;align=center;verticalAlign=middle;whiteSpace=wrap;rounded=0;" vertex="1" parent="1">
          <mxGeometry x="304" y="660" width="226" height="30" as="geometry" />
        </mxCell>
        <mxCell id="UeIk6slFyx1l8UJ_SRnx-47" value="&lt;span style=&quot;font-size: 15px;&quot;&gt;&lt;b&gt;Object Type: &lt;/b&gt;Tables&lt;/span&gt;" style="text;html=1;align=center;verticalAlign=middle;whiteSpace=wrap;rounded=0;" vertex="1" parent="1">
          <mxGeometry x="600" y="420" width="196" height="20" as="geometry" />
        </mxCell>
        <mxCell id="UeIk6slFyx1l8UJ_SRnx-48" value="&lt;span style=&quot;font-size: 15px;&quot;&gt;&lt;b&gt;Object Type: &lt;/b&gt;Views&lt;/span&gt;" style="text;html=1;align=center;verticalAlign=middle;whiteSpace=wrap;rounded=0;" vertex="1" parent="1">
          <mxGeometry x="947" y="420" width="196" height="20" as="geometry" />
        </mxCell>
        <mxCell id="UeIk6slFyx1l8UJ_SRnx-49" value="&lt;font style=&quot;font-size: 15px;&quot;&gt;&lt;b&gt;Load:&lt;span style=&quot;white-space: pre;&quot;&gt;&#x9;&lt;/span&gt;&lt;span style=&quot;white-space: pre;&quot;&gt;&#x9;&lt;/span&gt;&lt;span style=&quot;white-space: pre;&quot;&gt;&#x9;&lt;/span&gt;&lt;span style=&quot;white-space: pre;&quot;&gt;&#x9;&lt;/span&gt;&lt;/b&gt;&lt;/font&gt;&lt;div&gt;&lt;span style=&quot;font-size: 15px; background-color: transparent; color: light-dark(rgb(0, 0, 0), rgb(255, 255, 255));&quot;&gt;&lt;br&gt;&lt;/span&gt;&lt;/div&gt;&lt;div&gt;&lt;div&gt;&lt;ul&gt;&lt;li&gt;&lt;span style=&quot;font-size: 15px; background-color: transparent; color: light-dark(rgb(0, 0, 0), rgb(255, 255, 255));&quot;&gt;Batch processing&lt;/span&gt;&lt;/li&gt;&lt;li&gt;&lt;font style=&quot;font-size: 15px;&quot;&gt;Full Load (Trunc &amp;amp; Insert)&lt;/font&gt;&lt;/li&gt;&lt;/ul&gt;&lt;div&gt;&lt;span style=&quot;font-size: 15px;&quot;&gt;&lt;br&gt;&lt;/span&gt;&lt;/div&gt;&lt;/div&gt;&lt;div&gt;&lt;span style=&quot;font-size: 15px;&quot;&gt;&lt;br&gt;&lt;/span&gt;&lt;/div&gt;&lt;/div&gt;" style="text;html=1;align=center;verticalAlign=middle;whiteSpace=wrap;rounded=0;" vertex="1" parent="1">
          <mxGeometry x="609" y="510" width="206" height="30" as="geometry" />
        </mxCell>
        <mxCell id="UeIk6slFyx1l8UJ_SRnx-51" value="&lt;span style=&quot;font-size: 15px;&quot;&gt;&lt;b&gt;Transformations:&lt;/b&gt;&lt;/span&gt;&lt;div&gt;&lt;ul&gt;&lt;li&gt;&lt;span style=&quot;font-size: 15px;&quot;&gt;Data Cleansing&lt;/span&gt;&lt;/li&gt;&lt;li&gt;&lt;span style=&quot;font-size: 15px;&quot;&gt;Data Standardization&lt;/span&gt;&lt;/li&gt;&lt;li&gt;&lt;span style=&quot;font-size: 15px;&quot;&gt;Data Normalization&lt;/span&gt;&lt;/li&gt;&lt;li&gt;&lt;span style=&quot;font-size: 15px;&quot;&gt;Dervied Columns&lt;/span&gt;&lt;/li&gt;&lt;li&gt;&lt;span style=&quot;font-size: 15px;&quot;&gt;Data Enrichment&lt;/span&gt;&lt;/li&gt;&lt;/ul&gt;&lt;/div&gt;" style="text;html=1;align=center;verticalAlign=middle;whiteSpace=wrap;rounded=0;" vertex="1" parent="1">
          <mxGeometry x="580" y="620" width="226" height="30" as="geometry" />
        </mxCell>
        <mxCell id="UeIk6slFyx1l8UJ_SRnx-52" value="&lt;span style=&quot;font-size: 15px;&quot;&gt;&lt;b&gt;Transformations:&lt;/b&gt;&lt;/span&gt;&lt;div&gt;&lt;ul&gt;&lt;li&gt;&lt;span style=&quot;font-size: 15px;&quot;&gt;Data Integrations&lt;/span&gt;&lt;/li&gt;&lt;li&gt;&lt;span style=&quot;font-size: 15px;&quot;&gt;Aggregations&lt;/span&gt;&lt;/li&gt;&lt;li&gt;&lt;span style=&quot;font-size: 15px;&quot;&gt;Business Logics&lt;/span&gt;&lt;/li&gt;&lt;/ul&gt;&lt;/div&gt;" style="text;html=1;align=center;verticalAlign=middle;whiteSpace=wrap;rounded=0;" vertex="1" parent="1">
          <mxGeometry x="937.8199999999999" y="555" width="214.35" height="30" as="geometry" />
        </mxCell>
        <mxCell id="UeIk6slFyx1l8UJ_SRnx-53" value="&lt;font style=&quot;font-size: 15px;&quot;&gt;&lt;b&gt;Data Model: &lt;/b&gt;None (as-is)&lt;/font&gt;" style="text;html=1;align=center;verticalAlign=middle;whiteSpace=wrap;rounded=0;" vertex="1" parent="1">
          <mxGeometry x="595.35" y="740" width="226" height="30" as="geometry" />
        </mxCell>
        <mxCell id="UeIk6slFyx1l8UJ_SRnx-54" value="&lt;font style=&quot;font-size: 15px;&quot;&gt;&lt;b&gt;Data Model:&amp;nbsp;&lt;/b&gt;&lt;/font&gt;&lt;div&gt;&lt;ul&gt;&lt;li&gt;&lt;font style=&quot;font-size: 15px;&quot;&gt;Star Schema&lt;/font&gt;&lt;/li&gt;&lt;li&gt;&lt;font style=&quot;font-size: 15px;&quot;&gt;Flat Table&lt;/font&gt;&lt;/li&gt;&lt;li&gt;&lt;font style=&quot;font-size: 15px;&quot;&gt;Aggregated Table&lt;/font&gt;&lt;/li&gt;&lt;/ul&gt;&lt;/div&gt;" style="text;html=1;align=center;verticalAlign=middle;whiteSpace=wrap;rounded=0;" vertex="1" parent="1">
          <mxGeometry x="915.6499999999999" y="660" width="214.35" height="30" as="geometry" />
        </mxCell>
        <mxCell id="UeIk6slFyx1l8UJ_SRnx-55" value="&lt;font style=&quot;font-size: 15px;&quot;&gt;No &lt;b&gt;Load&lt;/b&gt;&lt;/font&gt;" style="text;html=1;align=center;verticalAlign=middle;whiteSpace=wrap;rounded=0;" vertex="1" parent="1">
          <mxGeometry x="930" y="472" width="230" height="30" as="geometry" />
        </mxCell>
        <mxCell id="UeIk6slFyx1l8UJ_SRnx-56" value="&lt;font style=&quot;font-size: 18px;&quot;&gt;BI &amp;amp; Reporting&lt;/font&gt;" style="text;html=1;align=center;verticalAlign=middle;whiteSpace=wrap;rounded=0;" vertex="1" parent="1">
          <mxGeometry x="1330" y="261.05" width="250" height="27.9" as="geometry" />
        </mxCell>
        <mxCell id="UeIk6slFyx1l8UJ_SRnx-57" value="&lt;font style=&quot;font-size: 18px;&quot;&gt;Ad-Hoc&lt;/font&gt;&lt;div&gt;&lt;font style=&quot;font-size: 18px;&quot;&gt;SQL Queries&lt;/font&gt;&lt;/div&gt;" style="text;html=1;align=center;verticalAlign=middle;whiteSpace=wrap;rounded=0;" vertex="1" parent="1">
          <mxGeometry x="1330" y="491.05" width="250" height="27.9" as="geometry" />
        </mxCell>
        <mxCell id="UeIk6slFyx1l8UJ_SRnx-58" value="&lt;font style=&quot;font-size: 18px;&quot;&gt;Machine Learning&lt;/font&gt;" style="text;html=1;align=center;verticalAlign=middle;whiteSpace=wrap;rounded=0;" vertex="1" parent="1">
          <mxGeometry x="1335" y="712.1" width="250" height="37.9" as="geometry" />
        </mxCell>
        <mxCell id="UeIk6slFyx1l8UJ_SRnx-60" value="" style="image;aspect=fixed;html=1;points=[];align=center;fontSize=12;image=img/lib/azure2/analytics/Power_BI_Embedded.svg;" vertex="1" parent="1">
          <mxGeometry x="1375.53" y="153.9" width="72.07" height="96.1" as="geometry" />
        </mxCell>
        <mxCell id="UeIk6slFyx1l8UJ_SRnx-61" value="" style="shadow=0;dashed=0;html=1;strokeColor=none;fillColor=#EF8F21;labelPosition=center;verticalLabelPosition=bottom;verticalAlign=top;align=center;outlineConnect=0;shape=mxgraph.veeam.reporting;" vertex="1" parent="1">
          <mxGeometry x="1447.6" y="180" width="72.4" height="70" as="geometry" />
        </mxCell>
        <mxCell id="UeIk6slFyx1l8UJ_SRnx-62" value="" style="points=[];aspect=fixed;html=1;align=center;shadow=0;dashed=0;fillColor=#FF6A00;strokeColor=none;shape=mxgraph.alibaba_cloud.assettech;" vertex="1" parent="1">
          <mxGeometry x="1403.4" y="348.71999999999997" width="116.6" height="112.55" as="geometry" />
        </mxCell>
        <mxCell id="UeIk6slFyx1l8UJ_SRnx-63" value="" style="outlineConnect=0;dashed=0;verticalLabelPosition=bottom;verticalAlign=top;align=center;html=1;shape=mxgraph.aws3.machine_learning;fillColor=#2E73B8;gradientColor=none;" vertex="1" parent="1">
          <mxGeometry x="1400" y="570" width="110" height="111.5" as="geometry" />
        </mxCell>
        <mxCell id="UeIk6slFyx1l8UJ_SRnx-64" value="" style="shape=mxgraph.arrows.arrow_right;html=1;verticalLabelPosition=bottom;verticalAlign=top;strokeWidth=2;strokeColor=#6c8ebf;fillColor=#dae8fc;gradientColor=#7ea6e0;" vertex="1" parent="1">
          <mxGeometry x="1260" y="270" width="65.65" height="50" as="geometry" />
        </mxCell>
        <mxCell id="UeIk6slFyx1l8UJ_SRnx-65" value="" style="sketch=0;pointerEvents=1;shadow=0;dashed=0;html=1;strokeColor=none;fillColor=#005F4B;labelPosition=center;verticalLabelPosition=bottom;verticalAlign=top;align=center;outlineConnect=0;shape=mxgraph.veeam2.sql_server;" vertex="1" parent="1">
          <mxGeometry x="260" y="30" width="90" height="81" as="geometry" />
        </mxCell>
        <mxCell id="UeIk6slFyx1l8UJ_SRnx-66" value="&lt;i&gt;&lt;font style=&quot;font-size: 17px;&quot;&gt;SQL Server&lt;/font&gt;&lt;/i&gt;" style="text;html=1;align=center;verticalAlign=middle;whiteSpace=wrap;rounded=0;" vertex="1" parent="1">
          <mxGeometry x="359" y="80" width="151" height="30" as="geometry" />
        </mxCell>
      </root>
    </mxGraphModel>
  </diagram>
</mxfile>
